<svg xmlns="http://www.w3.org/2000/svg" fill="#112130" aria-hidden="true" viewBox="0 0 172.1 52.34">
  <g>
    <g>
      <path d="m1.15,25.2c.14-2.4.74-4.39,1.8-5.98,1.06-1.58,2.4-2.86,4.03-3.82,1.63-.96,3.47-1.64,5.51-2.05,2.04-.41,4.09-.61,6.16-.61,1.87,0,3.77.13,5.69.4,1.92.26,3.67.78,5.26,1.55,1.58.77,2.88,1.84,3.89,3.2,1.01,1.37,1.51,3.18,1.51,5.44v19.37c0,1.68.1,3.29.29,4.82.19,1.54.53,2.69,1.01,3.46h-10.37c-.19-.58-.35-1.16-.47-1.76-.12-.6-.2-1.21-.25-1.84-1.63,1.68-3.55,2.86-5.76,3.53-2.21.67-4.46,1.01-6.77,1.01-1.78,0-3.43-.22-4.97-.65-1.54-.43-2.88-1.1-4.03-2.02-1.15-.91-2.05-2.06-2.7-3.46-.65-1.39-.97-3.05-.97-4.97,0-2.11.37-3.85,1.12-5.22.74-1.37,1.7-2.46,2.88-3.28,1.18-.82,2.52-1.43,4.03-1.84,1.51-.41,3.04-.73,4.57-.97,1.54-.24,3.05-.43,4.54-.58,1.49-.14,2.81-.36,3.96-.65,1.15-.29,2.06-.71,2.74-1.26.67-.55.98-1.36.94-2.41,0-1.1-.18-1.98-.54-2.63-.36-.65-.84-1.15-1.44-1.51-.6-.36-1.3-.6-2.09-.72-.79-.12-1.64-.18-2.56-.18-2.02,0-3.6.43-4.75,1.3-1.15.86-1.82,2.3-2.02,4.32H1.15Zm23.62,7.56c-.43.38-.97.68-1.62.9-.65.22-1.34.4-2.09.54-.74.14-1.52.26-2.34.36-.82.1-1.63.22-2.45.36-.77.14-1.52.34-2.27.58-.74.24-1.39.56-1.94.97-.55.41-1,.92-1.33,1.55-.34.62-.5,1.42-.5,2.38s.17,1.68.5,2.3c.33.62.79,1.12,1.37,1.48.58.36,1.25.61,2.02.76.77.14,1.56.22,2.38.22,2.02,0,3.58-.34,4.68-1.01,1.1-.67,1.92-1.48,2.45-2.41.53-.94.85-1.88.97-2.84.12-.96.18-1.73.18-2.3v-3.82Z"/>
      <path d="m162.24,46.66c-1.2,2.02-2.77,3.47-4.72,4.36s-4.14,1.33-6.59,1.33c-2.78,0-5.23-.54-7.34-1.62-2.11-1.08-3.85-2.54-5.22-4.39-1.37-1.85-2.4-3.97-3.1-6.37-.7-2.4-1.04-4.9-1.04-7.49s.35-4.91,1.04-7.24c.7-2.33,1.73-4.38,3.1-6.16,1.37-1.77,3.08-3.2,5.15-4.28,2.06-1.08,4.46-1.62,7.2-1.62,2.21,0,4.31.47,6.3,1.4,1.99.94,3.56,2.32,4.72,4.14h.14V0h10.22v51.41h-9.72v-4.75h-.14Zm-.43-18.4c-.29-1.42-.78-2.66-1.48-3.74-.7-1.08-1.6-1.96-2.7-2.63-1.11-.67-2.5-1.01-4.18-1.01s-3.1.34-4.25,1.01c-1.15.67-2.08,1.56-2.77,2.66-.7,1.1-1.2,2.36-1.51,3.78-.31,1.42-.47,2.89-.47,4.43,0,1.44.17,2.88.5,4.32.33,1.44.88,2.73,1.62,3.85.74,1.13,1.68,2.04,2.81,2.74,1.13.7,2.48,1.04,4.07,1.04,1.68,0,3.08-.34,4.21-1.01,1.13-.67,2.03-1.57,2.7-2.7.67-1.13,1.15-2.41,1.44-3.85s.43-2.93.43-4.46-.14-3.01-.43-4.43Z"/>
      <path d="m86.88,20.92c-3,0-5.2,1.93-5.38,2.08-2.24,1.88-2.58,5.3-2.59,5.84h16.63c-1.42-7.18-4.79-7.91-8.67-7.92Z"/>
      <path d="m133.22,47.52c-.19-1.54-.29-3.14-.29-4.82v-19.37c0-2.26-.5-4.07-1.51-5.44-1.01-1.37-2.3-2.44-3.89-3.2-1.58-.77-3.34-1.28-5.26-1.55-1.92-.26-3.82-.4-5.69-.4-2.06,0-4.12.2-6.16.61-2.04.41-3.88,1.09-5.51,2.05-1.57.93-2.87,2.15-3.91,3.65.26.3.52.6.76.92,1.15,1.57,2.06,3.31,2.72,5.22h4.82c.19-2.02.86-3.46,2.02-4.32,1.15-.86,2.74-1.3,4.75-1.3.91,0,1.76.06,2.56.18.79.12,1.49.36,2.09.72.6.36,1.08.86,1.44,1.51.36.65.54,1.52.54,2.63.05,1.06-.26,1.86-.94,2.41-.67.55-1.58.97-2.74,1.26-1.15.29-2.47.5-3.96.65-1.49.14-3,.34-4.54.58-1.54.24-3.06.56-4.57.97-.1.03-.2.06-.3.09.16,1.54.21,3.11.1,4.73h-6.53s-.02.03-.03.04v-.04s-20.3,0-20.3,0c0,0,.09,1.1.18,1.85.02.13.03.27.05.4,0,.03,0,.06.01.08.04.21.08.4.13.59.07.28.14.59.23.88.04.12.07.25.11.36.03.08.05.15.08.21.05.14.11.28.17.42.28.58.76,1.43,1.12,1.9.12.14.24.27.36.4.26.25.59.53.87.74.12.09.24.17.37.25.34.21.88.47,1.33.65,0,0,0,0,0,0,.15.06.28.11.39.15.15.05.31.09.47.13.5.12,1.15.24,1.67.31.17.02.35.04.53.06.04,0,.08,0,.12,0,.17.01.35.01.53.02.23,0,.48,0,.73,0,.75-.02,1.45-.11,2.12-.27.58-.16,1.28-.39,1.84-.63.33-.16.64-.34.94-.54.11-.08.23-.16.36-.25.86-.63,1.51-1.28,1.95-1.95.18-.29.32-.57.41-.79.05-.12.12-.24.16-.37h1.84l.02-.08s0,.05,0,.08h7.14c-1.12,3.47-2.71,6.17-4.76,8.1.38.44.79.86,1.25,1.22,1.15.91,2.5,1.58,4.03,2.02,1.54.43,3.19.65,4.97.65,2.3,0,4.56-.34,6.77-1.01,2.21-.67,4.13-1.85,5.76-3.53.05.62.13,1.24.25,1.84.12.6.28,1.19.47,1.76h10.37c-.48-.77-.82-1.92-1.01-3.46Zm-10.51-10.94c0,.58-.06,1.34-.18,2.3-.12.96-.44,1.91-.97,2.84-.53.94-1.34,1.74-2.45,2.41-1.1.67-2.66,1.01-4.68,1.01-.82,0-1.61-.07-2.38-.22-.77-.14-1.44-.4-2.02-.76-.58-.36-1.03-.85-1.37-1.48-.34-.62-.5-1.39-.5-2.3,0-.96.17-1.75.5-2.38.33-.62.78-1.14,1.33-1.55.55-.41,1.2-.73,1.94-.97.74-.24,1.5-.43,2.27-.58.82-.14,1.63-.26,2.45-.36.82-.1,1.6-.22,2.34-.36.74-.14,1.44-.32,2.09-.54.65-.22,1.19-.52,1.62-.9v3.82Z"/>
      <path d="m69.99,40.79c-.89-2.4-1.33-5.04-1.33-7.92s.46-5.38,1.37-7.78c.54-1.42,1.23-2.71,2.04-3.91-.42-1.45-1.03-2.72-1.85-3.8-1.01-1.32-2.39-2.35-4.14-3.1-1.75-.74-4-1.12-6.73-1.12-1.92,0-3.89.49-5.9,1.48-2.02.98-3.67,2.56-4.97,4.72h-.22V0h-10.22v51.41h10.22v-19.51c0-3.79.62-6.52,1.87-8.17,1.25-1.66,3.26-2.48,6.05-2.48,2.45,0,4.15.76,5.11,2.27.96,1.51,1.44,3.8,1.44,6.88v21.02h10.22v-5.39c-1.23-1.52-2.23-3.25-2.96-5.23Z"/>
    </g>
  </g>
</svg>
